<?xml version="1.0" encoding="utf-8"?>
<!-- Generator: Adobe Illustrator 24.1.1, SVG Export Plug-In . SVG Version: 6.00 Build 0)  -->
<svg version="1.1" id="Capa_1" xmlns="http://www.w3.org/2000/svg" xmlns:xlink="http://www.w3.org/1999/xlink" x="0px" y="0px"
	 viewBox="0 0 841.9 292.9" style="enable-background:new 0 0 841.9 292.9;" xml:space="preserve">
<style type="text/css">
	.st0{clip-path:url(#SVGID_2_);}
	.st1{fill:#FFFFFF;}
	.st2{clip-path:url(#SVGID_4_);fill:#F4F5F4;}
	.st3{clip-path:url(#SVGID_6_);fill:#153B64;}
	.st4{fill:#00EA53;}
	.st5{fill:#E2FF0A;}
</style>
<g>
	<defs>
		<rect id="SVGID_1_" x="-0.5" y="0.3" width="846.8" height="292.2"/>
	</defs>
	<clipPath id="SVGID_2_">
		<use xlink:href="#SVGID_1_"  style="overflow:visible;"/>
	</clipPath>
	<g class="st0">
		<rect x="-1.6" y="0.3" width="845.7" height="292.2"/>
		
			<image style="overflow:visible;enable-background:new    ;" width="433" height="577" xlink:href="B4284134.png"  transform="matrix(0.5758 0 0 0.5732 0.4004 -37.7929)">
		</image>
		<g>
			<path class="st1" d="M340.6,227.5c0.1,0.1,0.1,0.2,0.1,0.2C340.7,227.7,340.6,227.6,340.6,227.5"/>
			<path class="st1" d="M555.5,267.2H289.4c-2.1,0-3.8-1.7-3.8-3.8c0-2.1,1.7-3.8,3.8-3.8h266.1c2.1,0,3.8,1.7,3.8,3.8
				C559.2,265.6,557.5,267.2,555.5,267.2"/>
			<path class="st1" d="M500.4,158.9c-0.6-1.9-2.3-5.5-2.3-5.5L427.8,28.6c-0.8-2.6-8.9-2.6-10.1,0L328.9,187
				c-1,1.8-0.4,4.1,1.5,5.1s4.1,0.4,5.1-1.4L422.8,35l69,122.7c0,0,2.8,7.1,1.3,11.8c-0.8,2.6-0.4,3.3-3,6.9
				c-5.6,8-14.8,8.1-14.8,8.1l-71.2,0v-52.7h37.8v30.3h-15.3v-11.9c0-1.9-1.5-3.4-3.4-3.4h-0.8c-1.9,0-3.4,1.5-3.4,3.4v15.9
				c0,1.7,1.3,3.1,2.9,3.3c0.4,0.1,0.7,0.2,1.1,0.2h22.7c1.8,0,3.4-1.3,3.7-3.1c0-0.2,0.1-0.4,0.1-0.7v-38.2c0-1.9-1.5-3.4-3.4-3.4
				h-0.4h-0.4h-44.9c-0.4,0-0.7,0.1-1,0.2c-1.6,0.3-2.8,1.7-2.8,3.3v60.9c0,1.9,1.5,3.4,3.4,3.4h0.4h0.4l72.2,0
				c0,0,6.1,0.4,11.8-1.8c5-2,8.3-4.5,11.2-8.5C501.6,174,502,163.8,500.4,158.9"/>
			<path class="st1" d="M292.6,265.3l12.8-22.6c1-1.8,0.4-4.1-1.4-5.1c-1.8-1-4.1-0.4-5.1,1.4l-12.8,22.6c-1,1.8-0.4,4.1,1.4,5.1
				C289.3,267.8,291.6,267.1,292.6,265.3"/>
			<path class="st1" d="M357,199.8c0.6,0,1,0,1.4,0.1c0.4,0.1,0.7,0.2,1,0.4c0.3,0.2,0.6,0.4,0.8,0.8s0.6,0.8,0.9,1.3l13.3,20.8
				c0.1,0.2,0.3,0.3,0.5,0.3h0.3c0.2,0,0.3-0.1,0.3-0.4v-22.3c0-0.6,0.3-0.9,0.8-0.9h3.7c0.5,0,0.8,0.3,0.8,0.9v24.5
				c0,1.7-0.3,2.9-0.8,3.5c-0.5,0.6-1.3,0.9-2.4,0.9h-3.1c-0.5,0-1,0-1.4-0.1c-0.4-0.1-0.7-0.2-1-0.3c-0.3-0.2-0.6-0.4-0.8-0.8
				c-0.3-0.3-0.6-0.8-0.9-1.4l-13.3-20.8c-0.2-0.2-0.3-0.3-0.5-0.3h-0.3c-0.2,0-0.3,0.1-0.3,0.4v22.3c0,0.6-0.3,0.9-0.8,0.9h-3.7
				c-0.5,0-0.8-0.3-0.8-0.9v-24.5c0-1.7,0.3-2.9,0.8-3.5c0.5-0.6,1.3-0.9,2.4-0.9L357,199.8L357,199.8z"/>
			<path class="st1" d="M407.4,199.8c2,0,3.8,0.2,5.3,0.7c1.5,0.5,2.7,1.2,3.6,2.2s1.6,2.2,2.1,3.8c0.4,1.5,0.7,3.3,0.7,5.4v5.8
				c0,2.1-0.2,3.9-0.7,5.4s-1.1,2.8-2.1,3.8s-2.1,1.7-3.6,2.2c-1.5,0.5-3.2,0.7-5.3,0.7h-17.7c-0.8,0-1.1-0.4-1.1-1.3v-27.3
				c0-0.9,0.4-1.3,1.1-1.3L407.4,199.8L407.4,199.8z M394.4,221.8c0,1,0.7,1.9,1.6,1.9h11.3c1.1,0,2-0.1,2.8-0.3
				c0.8-0.2,1.4-0.6,1.8-1.1c0.5-0.5,0.8-1.2,1-2c0.2-0.9,0.3-1.9,0.3-3.2v-4.7c0-1.3-0.1-2.3-0.3-3.2c-0.2-0.9-0.5-1.5-1-2.1
				c-0.5-0.5-1.1-0.9-1.8-1.1c-0.8-0.2-1.7-0.3-2.8-0.3h-12.4c-0.3,0-0.5,0.2-0.5,0.6L394.4,221.8L394.4,221.8z"/>
			<path class="st1" d="M448.1,199.8c3,0,5.1,0.7,6.4,2.2c1.3,1.5,1.9,3.7,1.9,6.6v2.4c0,2.4-0.5,4.4-1.3,5.8
				c-0.6,1-1.6,1.8-2.8,2.3c-0.8,0.3-1,1.4-0.5,2.1l5.4,7.5c0.1,0.1,0.2,0.4,0.1,0.6c-0.1,0.3-0.3,0.4-0.6,0.4h-5
				c-0.3,0-0.6,0-0.7-0.1c-0.1-0.1-0.3-0.2-0.4-0.4l-5.7-8.4c-0.2-0.3-0.6-0.5-0.9-0.5h-10.7c-0.6,0-1.2,0.6-1.2,1.3v7.2
				c0,0.6-0.3,0.9-0.8,0.9h-4.2c-0.6,0-0.9-0.3-0.9-0.9v-27.6c0-0.9,0.4-1.3,1.2-1.3L448.1,199.8L448.1,199.8z M432.1,213.7
				c0,0.7,0.5,1.3,1.2,1.3h13.6c1.3,0,2.2-0.3,2.8-0.9c0.5-0.6,0.8-1.6,0.8-2.9v-1.8c0-1.3-0.3-2.2-0.8-2.9
				c-0.5-0.6-1.5-0.9-2.8-0.9h-14.3c-0.3,0-0.5,0.2-0.5,0.5V213.7z"/>
			<path class="st1" d="M493.8,199.6c0.6,0,0.9,0.3,0.9,0.9v4.1c0,0.6-0.3,0.9-0.9,0.9h-6.6l-2.5,3.6c-0.6,0.9-1.7,0.9-2.4,0.1
				l-2.8-3.6h-3.6c-1.1,0-1.9,0.1-2.6,0.3c-0.7,0.2-1.3,0.5-1.7,0.9c-0.4,0.4-0.7,1-0.9,1.8c-0.2,0.8-0.3,1.7-0.3,2.8v0.4h23.1
				c0.6,0,0.9,0.3,0.9,0.9v3.4c0,0.6-0.3,0.9-0.9,0.9h-23.1v0.7c0,1.1,0.1,2.1,0.3,2.8c0.2,0.8,0.5,1.4,0.9,1.8
				c0.4,0.4,1,0.8,1.7,0.9c0.7,0.2,1.6,0.3,2.6,0.3h17.8c0.6,0,0.9,0.3,0.9,0.9v4.1c0,0.6-0.3,0.9-0.9,0.9h-18
				c-2.1,0-3.8-0.2-5.3-0.6c-1.4-0.4-2.6-1.1-3.5-1.9c-0.9-0.9-1.6-2.1-2-3.5c-0.4-1.4-0.6-3.2-0.6-5.3v-7.4c0-2.1,0.2-3.8,0.6-5.2
				s1.1-2.6,2-3.5s2.1-1.6,3.5-2c1.4-0.4,3.2-0.6,5.3-0.6h3.8l2.7,3.6c0.7,0.9,1.7,0.9,2.4-0.1l2.5-3.6L493.8,199.6L493.8,199.6z"/>
			<path class="st1" d="M525,202.3c0.5,1.1-0.5,3.3-1.7,3.3l-12.8,0.2c-0.8,0-1.3,0.2-1.6,0.6c-0.3,0.4-0.5,1-0.5,1.8v1.4
				c0,1.6,0.7,2.4,2.1,2.4h13.6c3.5,0.2,6.4,0.9,7.4,2.1c2.2,2.7,4.8,7.3,6.6,10.8c1.2,2.5-0.7,4.8-2.4,4.8c-2.8,0-5.7,0-6.4,0
				c-7.2,0-25.8-0.1-25.8-0.1c-0.6,0-0.9-0.3-0.9-0.9v-4.1c0-0.6,0.3-0.9,0.9-0.9c0,0,25.1-0.2,26.4-0.2c0.2-0.7-1.9-5.9-5.3-6.2
				l-15.1-0.1c-2.3,0-4-0.6-5.2-1.9c-1.2-1.3-1.7-3.1-1.7-5.4v-3.1c0-2.1,0.6-3.8,1.7-5c1.1-1.3,2.9-1.9,5.3-1.9l12.9,0.1
				c0.8,0,1.6,0.4,2,1.1L525,202.3z"/>
			<path class="st1" d="M325.8,200.1c1,0,1.9,0.2,2.6,0.7s1.4,1.3,2,2.6l12.5,25.4c0.1,0.3,0.2,0.5,0.1,0.7
				c-0.1,0.2-0.3,0.3-0.6,0.3h-5.1c-0.5,0-0.8-0.2-0.9-0.6l-2.8-5.5h-18.8l-2.8,5.5c-0.2,0.4-0.5,0.6-0.9,0.6h-5.2
				c-0.3,0-0.6-0.1-0.6-0.3c-0.1-0.2,0-0.4,0.1-0.7l14.2-25.4c0.7-1.3,1.3-2.1,2-2.6c0.6-0.4,1.1-0.7,1.9-0.7H325.8z M317.3,218.6
				h13.8l-5.8-12.5c-0.1-0.2-0.3-0.3-0.4-0.3h-0.2c-0.2,0-0.3,0.1-0.4,0.3L317.3,218.6z"/>
			<path class="st1" d="M336.6,237.3c0.3,0,0.5,0.2,0.5,0.5v2.1c0,0.3-0.2,0.5-0.5,0.5h-9.8c-0.6,0-1,0.1-1.4,0.1
				c-0.4,0.1-0.7,0.3-0.9,0.5c-0.2,0.2-0.4,0.5-0.5,0.9c-0.1,0.4-0.1,0.8-0.1,1.4v3c0,0.6,0.1,1,0.1,1.4c0.1,0.4,0.3,0.7,0.5,0.9
				c0.2,0.2,0.5,0.4,0.9,0.5c0.4,0.1,0.8,0.1,1.4,0.1h9.8c0.3,0,0.5,0.1,0.5,0.5v2.1c0,0.3-0.2,0.5-0.5,0.5h-9.9
				c-1.1,0-2.1-0.1-2.8-0.3c-0.8-0.2-1.4-0.5-1.9-1c-0.5-0.4-0.9-1-1.1-1.7c-0.2-0.7-0.3-1.6-0.3-2.6v-3.6c0-1,0.1-1.9,0.3-2.6
				c0.2-0.7,0.6-1.3,1.1-1.7c0.5-0.4,1.1-0.8,1.9-1c0.8-0.2,1.7-0.3,2.8-0.3L336.6,237.3L336.6,237.3z"/>
			<path class="st1" d="M364.4,237.3c0.6,0,1,0.1,1.4,0.3c0.4,0.2,0.8,0.6,1.1,1.3l7.3,12.7c0.1,0.1,0.1,0.3,0.1,0.4
				c0,0.1-0.1,0.1-0.3,0.1h-2.8c-0.3,0-0.4-0.1-0.5-0.3l-1.6-2.7h-10.4l-1.5,2.7c-0.1,0.2-0.3,0.3-0.5,0.3h-2.9
				c-0.2,0-0.3,0-0.3-0.1c0-0.1,0-0.2,0.1-0.4l7.2-12.7c0.4-0.6,0.7-1.1,1.1-1.3c0.4-0.2,0.8-0.3,1.2-0.3H364.4z M360.1,246.6h7.6
				l-3.5-6.2c-0.1-0.1-0.1-0.1-0.2-0.1h-0.1c-0.1,0-0.2,0.1-0.2,0.1L360.1,246.6z"/>
			<path class="st1" d="M394,237.3c0.3,0,0.5,0.2,0.5,0.5v13.8c0,0.3-0.2,0.5-0.5,0.5h-2.4c-0.3,0-0.5-0.1-0.5-0.5v-13.8
				c0-0.3,0.2-0.5,0.5-0.5L394,237.3L394,237.3z"/>
			<path class="st1" d="M427.9,237.3c0.3,0,0.5,0.2,0.5,0.5v2.1c0,0.3-0.2,0.5-0.5,0.5h-9.8c-0.6,0-1,0.1-1.4,0.1
				c-0.4,0.1-0.7,0.3-0.9,0.5c-0.2,0.2-0.4,0.5-0.5,0.9c-0.1,0.4-0.1,0.8-0.1,1.4v3c0,0.6,0.1,1,0.1,1.4s0.3,0.7,0.5,0.9
				c0.2,0.2,0.5,0.4,0.9,0.5c0.4,0.1,0.9,0.1,1.4,0.1h9.8c0.3,0,0.5,0.1,0.5,0.5v2.1c0,0.3-0.2,0.5-0.5,0.5H418
				c-1.1,0-2.1-0.1-2.8-0.3c-0.8-0.2-1.4-0.5-1.9-1c-0.5-0.4-0.9-1-1.1-1.7c-0.2-0.7-0.3-1.6-0.3-2.6v-3.6c0-1,0.1-1.9,0.3-2.6
				c0.2-0.7,0.6-1.3,1.1-1.7c0.5-0.4,1.1-0.8,1.9-1c0.8-0.2,1.7-0.3,2.8-0.3L427.9,237.3L427.9,237.3z"/>
			<path class="st1" d="M461.2,237.3c0.3,0,0.5,0.2,0.5,0.5v2c0,0.3-0.2,0.5-0.5,0.5h-9.6c-0.6,0-1.1,0.1-1.4,0.1
				c-0.4,0.1-0.7,0.3-0.9,0.5c-0.2,0.2-0.4,0.5-0.5,0.9c-0.1,0.4-0.1,0.8-0.1,1.4v0.2h12.5c0.3,0,0.5,0.1,0.5,0.5v1.7
				c0,0.3-0.2,0.5-0.5,0.5h-12.5v0.4c0,0.6,0,1,0.1,1.4c0.1,0.4,0.3,0.7,0.5,0.9s0.5,0.4,0.9,0.5c0.4,0.1,0.8,0.1,1.4,0.1h9.6
				c0.3,0,0.5,0.1,0.5,0.5v2c0,0.3-0.2,0.5-0.5,0.5h-9.7c-1.1,0-2.1-0.1-2.8-0.3c-0.8-0.2-1.4-0.5-1.9-1s-0.8-1-1.1-1.7
				c-0.2-0.7-0.4-1.6-0.4-2.6v-3.6c0-1,0.1-1.9,0.4-2.6c0.2-0.7,0.6-1.3,1.1-1.7c0.5-0.4,1.1-0.8,1.9-1c0.8-0.2,1.7-0.3,2.8-0.3
				L461.2,237.3L461.2,237.3z"/>
			<path class="st1" d="M490.2,237.3c1.2,0,2.3,0.1,3.1,0.4c0.9,0.2,1.6,0.6,2.1,1.1c0.6,0.5,1,1.1,1.2,1.9c0.3,0.8,0.4,1.6,0.4,2.7
				v2.9c0,1-0.1,1.9-0.4,2.7c-0.3,0.8-0.7,1.4-1.2,1.9c-0.6,0.5-1.3,0.8-2.1,1.1c-0.9,0.2-1.9,0.4-3.1,0.4h-10.5
				c-0.5,0-0.7-0.2-0.7-0.6v-13.5c0-0.4,0.2-0.6,0.7-0.6L490.2,237.3L490.2,237.3z M482.5,248.8c0,0.2,0.1,0.3,0.3,0.3h7.4
				c0.7,0,1.2-0.1,1.7-0.2c0.5-0.1,0.8-0.3,1.1-0.5s0.5-0.6,0.6-1c0.1-0.4,0.2-0.9,0.2-1.6v-2.3c0-0.6-0.1-1.1-0.2-1.6
				s-0.3-0.8-0.6-1c-0.3-0.3-0.6-0.4-1.1-0.6c-0.5-0.1-1-0.2-1.7-0.2h-7.4c-0.2,0-0.3,0.1-0.3,0.3L482.5,248.8L482.5,248.8z"/>
			<path class="st1" d="M527,237.3c1.1,0,2.1,0.1,2.9,0.3c0.8,0.2,1.4,0.5,1.9,1s0.9,1,1.1,1.7c0.2,0.7,0.3,1.6,0.3,2.6v3.6
				c0,1-0.1,1.9-0.3,2.6s-0.6,1.3-1.1,1.7s-1.1,0.8-1.9,1c-0.8,0.2-1.8,0.3-2.9,0.3h-6.9c-1.1,0-2.1-0.1-2.9-0.3
				c-0.8-0.2-1.4-0.5-1.9-1c-0.5-0.4-0.9-1-1.1-1.7c-0.2-0.7-0.4-1.6-0.4-2.6v-3.6c0-1,0.1-1.9,0.4-2.6c0.2-0.7,0.6-1.3,1.1-1.7
				c0.5-0.4,1.1-0.8,1.9-1s1.7-0.3,2.9-0.3H527z M517.3,246.2c0,0.6,0.1,1,0.2,1.4c0.1,0.4,0.3,0.7,0.5,0.9c0.2,0.2,0.5,0.4,0.9,0.5
				c0.4,0.1,0.9,0.1,1.4,0.1h6.6c0.6,0,1.1,0,1.4-0.1c0.4-0.1,0.7-0.2,0.9-0.5c0.2-0.2,0.4-0.5,0.5-0.9c0.1-0.4,0.1-0.8,0.1-1.4
				v-3.2c0-0.6,0-1-0.1-1.4c-0.1-0.4-0.3-0.7-0.5-0.9c-0.2-0.2-0.5-0.4-0.9-0.5c-0.4-0.1-0.9-0.1-1.4-0.1h-6.6
				c-0.6,0-1.1,0.1-1.4,0.1c-0.4,0.1-0.7,0.3-0.9,0.5c-0.2,0.2-0.4,0.5-0.5,0.9c-0.1,0.4-0.2,0.8-0.2,1.4V246.2z"/>
		</g>
		<g>
			<g>
				<defs>
					<rect id="SVGID_3_" x="622.5" y="0.3" width="223.8" height="292.2"/>
				</defs>
				<clipPath id="SVGID_4_">
					<use xlink:href="#SVGID_3_"  style="overflow:visible;"/>
				</clipPath>
				<polygon class="st2" points="952.2,495.1 537.5,-242.2 615.2,-285.7 1029.9,451.5 				"/>
			</g>
			<g>
				<defs>
					<rect id="SVGID_5_" x="622.5" y="0.3" width="223.8" height="292.2"/>
				</defs>
				<clipPath id="SVGID_6_">
					<use xlink:href="#SVGID_5_"  style="overflow:visible;"/>
				</clipPath>
				<polygon class="st3" points="963,488.8 548.3,-248.4 603.9,-279.6 1018.6,457.7 				"/>
			</g>
		</g>
	</g>
</g>
<rect x="-0.5" y="298.3" class="st4" width="846.8" height="420.8"/>
<rect y="719.1" class="st5" width="841.9" height="317.8"/>
</svg>
